<svg xmlns="http://www.w3.org/2000/svg" xmlns:xlink="http://www.w3.org/1999/xlink" width="76" height="76" viewBox="0 0 150 150" version="1.1">
<g id="surface1">
<path style=" stroke:none;fill-rule:nonzero;fill:rgb(26.274511%,60.392159%,61.960787%);fill-opacity:1;" d="M 89 32.5 C 91.117188 33.300781 92.378906 34.886719 93.84375 36.53125 C 97.785156 40.859375 101.9375 44.96875 106.101562 49.082031 C 106.367188 49.34375 106.628906 49.605469 106.902344 49.875 C 107.621094 50.589844 108.34375 51.304688 109.066406 52.015625 C 110.160156 53.125 111.1875 54.277344 112.203125 55.453125 C 113.910156 57.425781 115.714844 59.269531 117.570312 61.101562 C 117.894531 61.425781 118.21875 61.746094 118.554688 62.078125 C 119.574219 63.09375 120.601562 64.109375 121.625 65.125 C 122.984375 66.46875 124.339844 67.816406 125.695312 69.164062 C 126.003906 69.46875 126.3125 69.773438 126.632812 70.089844 C 128.042969 71.492188 129.371094 72.855469 130.5 74.5 C 129.851562 75.925781 129.175781 76.945312 128.0625 78.042969 C 127.773438 78.328125 127.484375 78.617188 127.1875 78.910156 C 126.878906 79.214844 126.566406 79.519531 126.25 79.832031 C 125.929688 80.148438 125.609375 80.464844 125.28125 80.792969 C 124.261719 81.800781 123.242188 82.808594 122.21875 83.8125 C 121.195312 84.820312 120.171875 85.832031 119.152344 86.84375 C 118.515625 87.472656 117.878906 88.101562 117.242188 88.726562 C 115.679688 90.214844 115.679688 90.214844 114.5 92 C 114.171875 92 113.839844 92 113.5 92 C 113.371094 92.292969 113.242188 92.582031 113.109375 92.882812 C 112.445312 94.097656 111.722656 94.894531 110.742188 95.863281 C 110.203125 96.398438 110.203125 96.398438 109.65625 96.945312 C 109.269531 97.324219 108.882812 97.707031 108.484375 98.097656 C 108.085938 98.492188 107.6875 98.886719 107.28125 99.292969 C 106.011719 100.550781 104.742188 101.808594 103.46875 103.0625 C 102.195312 104.320312 100.921875 105.582031 99.652344 106.84375 C 98.863281 107.628906 98.070312 108.410156 97.273438 109.195312 C 96.917969 109.546875 96.5625 109.902344 96.191406 110.265625 C 95.878906 110.578125 95.5625 110.890625 95.238281 111.210938 C 94.453125 111.976562 94.453125 111.976562 94 113 C 93.671875 113 93.339844 113 93 113 C 92.875 113.289062 92.753906 113.578125 92.625 113.875 C 91.910156 115.164062 91.109375 116.03125 90 117 C 89.671875 117 89.339844 117 89 117 C 88.296875 116.285156 88.296875 116.285156 87.46875 115.28125 C 85.722656 113.203125 83.816406 111.371094 81.8125 109.539062 C 81 108.5 81 108.5 81.097656 107.546875 C 81.582031 106.28125 82.1875 105.636719 83.152344 104.683594 C 83.503906 104.335938 83.851562 103.988281 84.210938 103.632812 C 84.589844 103.261719 84.972656 102.890625 85.363281 102.507812 C 85.949219 101.925781 85.949219 101.925781 86.546875 101.335938 C 87.796875 100.09375 89.054688 98.859375 90.3125 97.625 C 91.558594 96.398438 92.804688 95.167969 94.046875 93.9375 C 94.820312 93.171875 95.59375 92.40625 96.371094 91.644531 C 98.414062 89.632812 100.347656 87.570312 102.21875 85.394531 C 103.238281 84.226562 104.320312 83.125 105.421875 82.03125 C 105.835938 81.617188 106.253906 81.199219 106.683594 80.773438 C 107.109375 80.351562 107.53125 79.933594 107.96875 79.5 C 108.40625 79.066406 108.84375 78.628906 109.292969 78.179688 C 110.363281 77.121094 111.429688 76.058594 112.5 75 C 109.578125 71.4375 106.289062 68.253906 103.011719 65.023438 C 100.328125 62.371094 97.683594 59.71875 95.230469 56.84375 C 94.21875 55.675781 93.132812 54.585938 92.03125 53.5 C 91.644531 53.117188 91.257812 52.738281 90.859375 52.34375 C 90.578125 52.066406 90.292969 51.785156 90 51.5 C 87.558594 53.550781 85.25 55.675781 83 57.933594 C 82.519531 58.414062 82.519531 58.414062 82.03125 58.902344 C 81.359375 59.570312 80.691406 60.242188 80.019531 60.914062 C 79.003906 61.933594 77.988281 62.949219 76.96875 63.960938 C 76.3125 64.621094 75.65625 65.277344 75 65.933594 C 74.699219 66.230469 74.402344 66.53125 74.09375 66.835938 C 72.253906 68.6875 70.515625 70.601562 68.808594 72.574219 C 66.929688 74.726562 64.910156 76.746094 62.90625 78.78125 C 62.238281 79.476562 62.238281 79.476562 61.558594 80.183594 C 60.917969 80.835938 60.917969 80.835938 60.257812 81.5 C 59.679688 82.097656 59.679688 82.097656 59.089844 82.703125 C 58 83.5 58 83.5 56.925781 83.441406 C 55.542969 82.78125 54.773438 81.785156 53.78125 80.625 C 52.546875 79.195312 51.347656 77.820312 49.9375 76.5625 C 49.472656 76.035156 49.472656 76.035156 49 75.5 C 49.171875 73.851562 49.78125 73.042969 50.953125 71.917969 C 51.242188 71.636719 51.53125 71.351562 51.828125 71.0625 C 52.132812 70.773438 52.4375 70.484375 52.75 70.1875 C 53.351562 69.609375 53.949219 69.03125 54.546875 68.449219 C 54.945312 68.066406 54.945312 68.066406 55.355469 67.679688 C 56.058594 67.003906 56.058594 67.003906 56.5 66 C 56.828125 66 57.160156 66 57.5 66 C 57.628906 65.707031 57.761719 65.414062 57.894531 65.109375 C 58.535156 63.933594 59.214844 63.167969 60.167969 62.226562 C 60.503906 61.890625 60.84375 61.554688 61.191406 61.207031 C 61.558594 60.847656 61.921875 60.492188 62.296875 60.121094 C 62.671875 59.75 63.046875 59.375 63.433594 58.992188 C 64.632812 57.804688 65.832031 56.621094 67.03125 55.4375 C 68.234375 54.25 69.433594 53.0625 70.632812 51.871094 C 71.378906 51.128906 72.128906 50.390625 72.878906 49.652344 C 73.214844 49.320312 73.550781 48.984375 73.898438 48.640625 C 74.195312 48.347656 74.496094 48.054688 74.800781 47.753906 C 75.550781 47.015625 75.550781 47.015625 76 46 C 76.328125 46 76.660156 46 77 46 C 77.175781 45.582031 77.175781 45.582031 77.351562 45.152344 C 78.167969 43.699219 79.183594 42.710938 80.375 41.542969 C 80.84375 41.082031 81.3125 40.617188 81.796875 40.140625 C 82.289062 39.65625 82.785156 39.171875 83.28125 38.6875 C 84.253906 37.734375 85.222656 36.78125 86.1875 35.824219 C 86.621094 35.402344 87.050781 34.980469 87.496094 34.546875 C 88.519531 33.582031 88.519531 33.582031 89 32.5 Z M 89 32.5 "></path>
<path style=" stroke:none;fill-rule:nonzero;fill:rgb(64.313728%,88.235295%,90.196079%);fill-opacity:1;" d="M 57 32.5 C 60.207031 35.136719 63.09375 38.046875 66 41 C 65.257812 42.742188 64.269531 43.820312 62.90625 45.125 C 61.5 46.472656 60.183594 47.855469 58.914062 49.332031 C 57.050781 51.472656 55.078125 53.476562 53.0625 55.46875 C 52.699219 55.832031 52.335938 56.191406 51.960938 56.566406 C 50.417969 58.097656 48.878906 59.625 47.335938 61.15625 C 46.203125 62.277344 45.070312 63.40625 43.9375 64.53125 C 43.59375 64.871094 43.25 65.207031 42.898438 65.558594 C 39.902344 68.539062 37.105469 71.667969 34.5 75 C 34.753906 75.25 35.007812 75.503906 35.269531 75.761719 C 36.441406 76.921875 37.613281 78.085938 38.78125 79.25 C 39.179688 79.644531 39.582031 80.042969 39.992188 80.449219 C 41.792969 82.242188 43.5625 84.039062 45.21875 85.96875 C 47.417969 88.527344 49.824219 90.875 52.21875 93.25 C 52.679688 93.707031 53.140625 94.167969 53.617188 94.640625 C 54.742188 95.761719 55.871094 96.882812 57 98 C 58.710938 97.191406 59.824219 96.292969 61.15625 94.9375 C 61.515625 94.574219 61.875 94.214844 62.242188 93.839844 C 63.222656 92.792969 64.164062 91.734375 65.097656 90.648438 C 66.886719 88.597656 68.777344 86.667969 70.714844 84.753906 C 71.054688 84.417969 71.390625 84.082031 71.738281 83.734375 C 72.804688 82.675781 73.871094 81.621094 74.9375 80.5625 C 76.355469 79.160156 77.769531 77.753906 79.183594 76.347656 C 79.507812 76.027344 79.835938 75.703125 80.167969 75.375 C 80.617188 74.929688 80.617188 74.929688 81.074219 74.472656 C 81.339844 74.210938 81.601562 73.949219 81.875 73.683594 C 82.558594 73 82.558594 73 83 72 C 83.328125 72 83.660156 72 84 72 C 84.121094 71.714844 84.246094 71.425781 84.371094 71.132812 C 85.105469 69.808594 85.976562 68.925781 87.0625 67.875 C 87.425781 67.523438 87.785156 67.167969 88.160156 66.804688 C 88.574219 66.40625 88.574219 66.40625 89 66 C 91.320312 67.046875 92.867188 68.664062 94.65625 70.4375 C 94.984375 70.75 95.3125 71.0625 95.652344 71.382812 C 96.117188 71.84375 96.117188 71.84375 96.585938 72.308594 C 96.871094 72.585938 97.152344 72.863281 97.445312 73.144531 C 98 74 98 74 97.871094 74.957031 C 97.453125 76.128906 97.003906 76.675781 96.121094 77.539062 C 95.832031 77.828125 95.542969 78.113281 95.246094 78.410156 C 94.929688 78.714844 94.617188 79.019531 94.292969 79.335938 C 93.96875 79.65625 93.644531 79.976562 93.3125 80.308594 C 92.273438 81.332031 91.230469 82.355469 90.1875 83.375 C 89.15625 84.390625 88.125 85.40625 87.097656 86.421875 C 86.457031 87.054688 85.8125 87.683594 85.171875 88.3125 C 83.3125 90.136719 81.582031 92.03125 79.882812 94.003906 C 78.417969 95.65625 76.851562 97.199219 75.28125 98.75 C 74.9375 99.089844 74.597656 99.429688 74.246094 99.78125 C 72.800781 101.214844 71.355469 102.648438 69.90625 104.082031 C 68.84375 105.136719 67.78125 106.195312 66.71875 107.25 C 66.398438 107.566406 66.078125 107.882812 65.746094 108.210938 C 63.835938 110.109375 62.03125 112.066406 60.28125 114.109375 C 59.550781 114.941406 58.792969 115.726562 58 116.5 C 56.058594 115.707031 54.742188 114.386719 53.289062 112.921875 C 52.910156 112.542969 52.910156 112.542969 52.523438 112.160156 C 51.992188 111.628906 51.464844 111.097656 50.9375 110.566406 C 50.125 109.75 49.308594 108.9375 48.492188 108.125 C 47.976562 107.609375 47.460938 107.09375 46.945312 106.578125 C 46.699219 106.335938 46.453125 106.089844 46.203125 105.839844 C 44.5 104.113281 44.5 104.113281 44.5 103 C 44.171875 103 43.839844 103 43.5 103 C 42.890625 102.378906 42.890625 102.378906 42.140625 101.453125 C 40.390625 99.394531 38.527344 97.480469 36.609375 95.578125 C 36.300781 95.269531 35.988281 94.960938 35.667969 94.644531 C 34.695312 93.675781 33.722656 92.714844 32.75 91.75 C 25.296875 84.375 25.296875 84.375 22.710938 81.324219 C 21.554688 79.980469 20.296875 78.742188 19.03125 77.5 C 18.660156 77.132812 18.660156 77.132812 18.285156 76.757812 C 17.691406 76.171875 17.09375 75.585938 16.5 75 C 16.796875 74.65625 16.796875 74.65625 17.101562 74.304688 C 18.800781 72.339844 18.800781 72.339844 20.375 70.28125 C 20.582031 70.023438 20.789062 69.765625 21 69.5 C 21.328125 69.5 21.660156 69.5 22 69.5 C 22.132812 69.207031 22.261719 68.910156 22.398438 68.609375 C 23.027344 67.449219 23.683594 66.699219 24.621094 65.773438 C 24.949219 65.445312 25.277344 65.121094 25.617188 64.785156 C 25.96875 64.4375 26.324219 64.089844 26.6875 63.730469 C 27.054688 63.371094 27.417969 63.007812 27.792969 62.636719 C 28.953125 61.484375 30.117188 60.335938 31.28125 59.1875 C 32.449219 58.035156 33.613281 56.882812 34.777344 55.726562 C 35.5 55.007812 36.226562 54.292969 36.953125 53.578125 C 37.28125 53.253906 37.609375 52.929688 37.945312 52.597656 C 38.234375 52.3125 38.523438 52.027344 38.820312 51.734375 C 39.550781 51.011719 39.550781 51.011719 40 50 C 40.328125 50 40.660156 50 41 50 C 41.136719 49.703125 41.269531 49.402344 41.410156 49.097656 C 41.992188 48.011719 42.5625 47.316406 43.4375 46.457031 C 43.726562 46.171875 44.015625 45.882812 44.3125 45.589844 C 44.621094 45.285156 44.933594 44.980469 45.25 44.667969 C 45.570312 44.351562 45.890625 44.035156 46.21875 43.707031 C 47.238281 42.699219 48.257812 41.691406 49.28125 40.6875 C 50.304688 39.679688 51.328125 38.667969 52.347656 37.65625 C 52.984375 37.027344 53.621094 36.398438 54.257812 35.773438 C 55.820312 34.285156 55.820312 34.285156 57 32.5 Z M 57 32.5 "></path>
<path style=" stroke:none;fill-rule:nonzero;fill:rgb(51.372552%,73.725492%,74.901962%);fill-opacity:1;" d="M 70 52.5 C 70.246094 52.996094 70.246094 52.996094 70.5 53.5 C 67.402344 57.222656 63.964844 60.59375 60.53125 64 C 59.945312 64.582031 59.359375 65.167969 58.773438 65.75 C 57.351562 67.167969 55.925781 68.585938 54.5 70 C 54.171875 69.835938 53.839844 69.671875 53.5 69.5 C 53.976562 68.914062 54.457031 68.332031 54.9375 67.75 C 55.203125 67.425781 55.472656 67.101562 55.746094 66.765625 C 55.996094 66.511719 56.242188 66.261719 56.5 66 C 56.828125 66 57.160156 66 57.5 66 C 57.609375 65.726562 57.722656 65.453125 57.835938 65.167969 C 58.703125 63.640625 59.867188 62.507812 61.113281 61.289062 C 61.367188 61.035156 61.621094 60.785156 61.882812 60.523438 C 62.691406 59.722656 63.5 58.921875 64.3125 58.125 C 64.863281 57.582031 65.410156 57.035156 65.960938 56.492188 C 67.304688 55.15625 68.652344 53.828125 70 52.5 Z M 70 52.5 "></path>
<path style=" stroke:none;fill-rule:nonzero;fill:rgb(57.254905%,76.862746%,78.039217%);fill-opacity:1;" d="M 85.5 36.5 C 85.664062 36.996094 85.828125 37.488281 86 38 C 81.136719 42.949219 81.136719 42.949219 79.375 44.34375 C 77.710938 45.746094 76.367188 47.316406 75 49 C 74.671875 48.835938 74.339844 48.671875 74 48.5 C 74.640625 47.644531 75.308594 46.8125 76 46 C 76.328125 46 76.660156 46 77 46 C 77.128906 45.707031 77.257812 45.414062 77.390625 45.113281 C 78.046875 43.910156 78.761719 43.125 79.738281 42.164062 C 80.242188 41.667969 80.242188 41.667969 80.753906 41.15625 C 81.101562 40.816406 81.453125 40.476562 81.8125 40.125 C 82.34375 39.601562 82.34375 39.601562 82.882812 39.070312 C 83.753906 38.210938 84.625 37.355469 85.5 36.5 Z M 85.5 36.5 "></path>
<path style=" stroke:none;fill-rule:nonzero;fill:rgb(58.431375%,77.64706%,78.431374%);fill-opacity:1;" d="M 86.5 101.5 C 86.664062 101.996094 86.828125 102.488281 87 103 C 86.679688 103.300781 86.363281 103.601562 86.03125 103.914062 C 85.621094 104.3125 85.207031 104.714844 84.78125 105.125 C 84.371094 105.519531 83.957031 105.914062 83.53125 106.320312 C 82.539062 107.453125 82.183594 108.035156 82 109.5 C 81.671875 109.171875 81.339844 108.839844 81 108.5 C 81.070312 106.371094 82.578125 105.273438 84.03125 103.875 C 84.492188 103.429688 84.949219 102.984375 85.421875 102.523438 C 85.777344 102.1875 86.132812 101.847656 86.5 101.5 Z M 86.5 101.5 "></path>
<path style=" stroke:none;fill-rule:nonzero;fill:rgb(66.666669%,81.960785%,82.745099%);fill-opacity:1;" d="M 89 32.5 C 90.683594 33.222656 91.753906 34.167969 93 35.5 C 92.835938 35.828125 92.671875 36.160156 92.5 36.5 C 91.839844 35.839844 91.179688 35.179688 90.5 34.5 C 89.34375 34.828125 88.191406 35.160156 87 35.5 C 87.660156 34.511719 88.320312 33.519531 89 32.5 Z M 89 32.5 "></path>
<path style=" stroke:none;fill-rule:nonzero;fill:rgb(53.333336%,74.901962%,75.686276%);fill-opacity:1;" d="M 70 52.5 C 70.164062 52.828125 70.328125 53.160156 70.5 53.5 C 69.34375 54.75 69.34375 54.75 68 56 C 67.503906 56 67.011719 56 66.5 56 C 67.65625 54.84375 68.808594 53.691406 70 52.5 Z M 70 52.5 "></path>
</g>
</svg>