<?xml version="1.0" encoding="UTF-8"?>
<svg version="1.1" xmlns="http://www.w3.org/2000/svg" width="300" height="300">
<path d="M0 0 C4.23262714 1.59854564 6.75422394 4.77714279 9.6875 8.0625 C17.57291865 16.71883029 25.87845017 24.93720522 34.20385742 33.16625977 C34.73106384 33.68930695 35.25827026 34.21235413 35.80145264 34.75125122 C37.24302123 36.18129527 38.68768481 37.60821749 40.13256836 39.03491211 C42.3214837 41.2479567 44.37248136 43.55235393 46.4074707 45.9074707 C49.82332263 49.84826056 53.42913922 53.542074 57.140625 57.203125 C57.78948669 57.84820007 58.43834839 58.49327515 59.10687256 59.15789795 C61.15213411 61.19108252 63.20063863 63.22094848 65.25 65.25 C67.96644615 67.93980189 70.67952283 70.63293812 73.390625 73.328125 C74.00939514 73.9385968 74.62816528 74.5490686 75.26568604 75.17803955 C78.0843715 77.98061094 80.7405536 80.70928786 83 84 C81.70665553 86.84898046 80.35207334 88.89179433 78.12670898 91.08447266 C77.54948593 91.65831696 76.97226288 92.23216125 76.37754822 92.82339478 C75.75666824 93.43081512 75.13578827 94.03823547 74.49609375 94.6640625 C73.85761002 95.29734467 73.21912628 95.93062683 72.56129456 96.58309937 C70.52472625 98.60187989 68.48158925 100.61383729 66.4375 102.625 C64.39072882 104.64416725 62.34542734 106.66476901 60.30299377 108.68832397 C59.03256434 109.94648149 57.75947158 111.20195639 56.48350525 112.45449829 C53.35670716 115.43156495 53.35670716 115.43156495 51 119 C50.34 119 49.68 119 49 119 C48.7425148 119.58312958 48.4850296 120.16625916 48.21974182 120.76705933 C46.89362017 123.19474601 45.44915629 124.78520922 43.48413086 126.72705078 C42.40807838 127.79803513 42.40807838 127.79803513 41.31028748 128.89065552 C40.53629105 129.65119232 39.76229462 130.41172913 38.96484375 131.1953125 C38.1709877 131.98396698 37.37713165 132.77262146 36.55921936 133.58517456 C34.0233426 136.10323945 31.48088208 138.61451787 28.9375 141.125 C26.39142771 143.64348364 23.84681279 146.16339659 21.30506897 148.68624878 C19.72303024 150.25600012 18.13832669 151.82307105 16.55076599 153.38723755 C15.83654984 154.09492279 15.12233368 154.80260803 14.38647461 155.53173828 C13.7551915 156.15476837 13.12390839 156.77779846 12.47349548 157.41970825 C10.90689521 158.95047815 10.90689521 158.95047815 10 161 C9.34 161 8.68 161 8 161 C7.7525 161.5775 7.505 162.155 7.25 162.75 C5.81700012 165.32939979 4.21575324 167.06121592 2 169 C1.34 169 0.68 169 0 169 C-1.41015625 167.56640625 -1.41015625 167.56640625 -3.0625 165.5625 C-6.55487503 161.40561387 -10.3710189 157.73966035 -14.375 154.078125 C-16 152 -16 152 -15.80825806 150.09710693 C-14.8326479 147.56578813 -13.6246451 146.26959772 -11.69287109 144.36816406 C-10.9947934 143.67354065 -10.2967157 142.97891724 -9.57748413 142.26324463 C-8.81714874 141.52153015 -8.05681335 140.77981567 -7.2734375 140.015625 C-6.10187607 138.85398834 -6.10187607 138.85398834 -4.90664673 137.66888428 C-2.40307984 135.18874086 0.11038141 132.71893323 2.625 130.25 C5.116511 127.79371664 7.60582575 125.33526684 10.09237671 122.8739624 C11.63959343 121.34351999 13.18989421 119.81618681 14.74380493 118.2925415 C18.82680989 114.26510831 22.69892925 110.13687949 26.4395752 105.78997803 C28.47971888 103.44970994 30.63734861 101.24980552 32.83984375 99.0625 C33.67451172 98.23105469 34.50917969 97.39960938 35.36914062 96.54296875 C36.21669922 95.70378906 37.06425781 94.86460937 37.9375 94 C38.81212891 93.12988281 39.68675781 92.25976562 40.58789062 91.36328125 C42.72297449 89.23986451 44.86037205 87.11883622 47 85 C41.15360434 77.87439298 34.5769716 71.51008012 28.02514648 65.0456543 C22.65697843 59.74271099 17.36926976 54.43366055 12.46411133 48.69116211 C10.43724387 46.34997303 8.26831681 44.17188117 6.0625 42 C5.29035156 41.236875 4.51820313 40.47375 3.72265625 39.6875 C3.15417969 39.130625 2.58570313 38.57375 2 38 C-2.88443836 42.10021811 -7.49954107 46.35149769 -12 50.8671875 C-12.9590625 51.82481491 -12.9590625 51.82481491 -13.9375 52.80178833 C-15.27987415 54.14348654 -16.62100465 55.4864301 -17.9609375 56.83056641 C-19.99107898 58.86605548 -22.02649289 60.89616123 -24.0625 62.92578125 C-25.37532063 64.23926294 -26.68783089 65.55305493 -28 66.8671875 C-28.598125 67.46328827 -29.19625 68.05938904 -29.8125 68.67355347 C-33.49176906 72.37290503 -36.96813575 76.20024067 -40.38150024 80.14575195 C-44.13994077 84.45164139 -48.18011401 88.49033628 -52.1875 92.5625 C-53.52071289 93.95178711 -53.52071289 93.95178711 -54.88085938 95.36914062 C-56.16766602 96.67334961 -56.16766602 96.67334961 -57.48046875 98.00390625 C-58.63905396 99.19222046 -58.63905396 99.19222046 -59.82104492 100.40454102 C-62 102 -62 102 -64.14599609 101.8815918 C-66.91759269 100.56367827 -68.45556318 98.57199183 -70.4375 96.25 C-72.90289783 93.38932351 -75.30514076 90.63680739 -78.125 88.125 C-79.053125 87.073125 -79.053125 87.073125 -80 86 C-79.65762066 82.70667641 -78.44003632 81.08505295 -76.09375 78.8359375 C-75.51496094 78.27132812 -74.93617187 77.70671875 -74.33984375 77.125 C-73.73269531 76.5475 -73.12554687 75.97 -72.5 75.375 C-71.29999559 74.21830785 -70.10198026 73.05954751 -68.90625 71.8984375 C-68.10670898 71.13539307 -68.10670898 71.13539307 -67.29101562 70.35693359 C-65.882719 69.0092052 -65.882719 69.0092052 -65 67 C-64.34 67 -63.68 67 -63 67 C-62.73872818 66.4130838 -62.47745636 65.8261676 -62.20826721 65.22146606 C-60.92779983 62.867256 -59.57043285 61.33546555 -57.66772461 59.45654297 C-56.9903978 58.78259491 -56.31307098 58.10864685 -55.61521912 57.41427612 C-54.88497025 56.69748688 -54.15472137 55.98069763 -53.40234375 55.2421875 C-52.65287979 54.49792511 -51.90341583 53.75366272 -51.13124084 52.98684692 C-48.73802366 50.61143574 -46.33822632 48.24281991 -43.9375 45.875 C-41.53408548 43.49917784 -39.13213131 41.12192511 -36.73304749 38.74172974 C-35.2400398 37.26100567 -33.74436764 35.78296256 -32.24583435 34.30783081 C-31.5716597 33.64018707 -30.89748505 32.97254333 -30.20288086 32.28466797 C-29.60712753 31.69716766 -29.01137421 31.10966736 -28.39756775 30.50436401 C-26.89939547 29.03306111 -26.89939547 29.03306111 -26 27 C-25.34 27 -24.68 27 -24 27 C-23.65207397 26.16202881 -23.65207397 26.16202881 -23.29711914 25.30712891 C-21.6617759 22.39841564 -19.62896071 20.42230841 -17.24609375 18.0859375 C-16.30958984 17.16039063 -15.37308594 16.23484375 -14.40820312 15.28125 C-13.41831227 14.31214898 -12.42807386 13.34340287 -11.4375 12.375 C-9.49549092 10.46934629 -7.55765812 8.55964369 -5.62109375 6.6484375 C-4.7592749 5.80458496 -3.89745605 4.96073242 -3.00952148 4.09130859 C-0.95795963 2.16362599 -0.95795963 2.16362599 0 0 Z " fill="#439A9E" transform="translate(178,65)"/>
<path d="M0 0 C6.41069287 5.27101414 12.18590512 11.09128152 18 17 C16.5158627 20.48654476 14.53785948 22.64191072 11.8125 25.25 C9.00078942 27.94845429 6.36378093 30.70961682 3.83081055 33.66699219 C0.10326628 37.94324432 -3.8408012 41.95212876 -7.875 45.9375 C-8.60315918 46.66187256 -9.33131836 47.38624512 -10.08154297 48.13256836 C-13.16056951 51.19542424 -16.24558323 54.25222311 -19.33007812 57.30957031 C-21.59715458 59.55844117 -23.86112966 61.81040238 -26.125 64.0625 C-26.81062012 64.73982178 -27.49624023 65.41714355 -28.20263672 66.11499023 C-34.19828122 72.08051694 -39.79131042 78.33287734 -45 85 C-44.49138428 85.50337891 -43.98276855 86.00675781 -43.45874023 86.52539062 C-41.11559272 88.84751978 -38.77653398 91.1737277 -36.4375 93.5 C-35.63763672 94.29148437 -34.83777344 95.08296875 -34.01367188 95.8984375 C-30.41139283 99.48601337 -26.87228876 103.07665023 -23.5625 106.9375 C-19.16482466 112.05544567 -14.35364365 116.75369787 -9.5625 121.5 C-8.64017578 122.4178125 -7.71785156 123.335625 -6.76757812 124.28125 C-4.51400101 126.52315055 -2.25810925 128.762666 0 131 C3.4196967 129.38468385 5.65199177 127.58748974 8.3125 124.875 C9.03050781 124.15054688 9.74851562 123.42609375 10.48828125 122.6796875 C12.44819547 120.58870593 14.32560007 118.47239764 16.19262695 116.30078125 C19.77719113 112.19618407 23.55256036 108.33457543 27.4296875 104.5078125 C28.10548859 103.83579803 28.78128967 103.16378357 29.47756958 102.47140503 C31.60760241 100.35345801 33.7408819 98.23882997 35.875 96.125 C38.70858202 93.31795911 41.53886508 90.50765162 44.3671875 87.6953125 C45.01815399 87.05264435 45.66912048 86.4099762 46.33981323 85.74783325 C47.23677414 84.85582718 47.23677414 84.85582718 48.15185547 83.94580078 C48.67923309 83.42365997 49.20661072 82.90151917 49.74996948 82.36355591 C51.11396113 81.00104531 51.11396113 81.00104531 52 79 C52.66 79 53.32 79 54 79 C54.24492187 78.42765625 54.48984375 77.8553125 54.7421875 77.265625 C56.21110099 74.61975598 57.95348244 72.85146861 60.125 70.75 C60.84945312 70.04359375 61.57390625 69.3371875 62.3203125 68.609375 C63.15175781 67.81273437 63.15175781 67.81273437 64 67 C68.64080887 69.09691569 71.73327953 72.32828506 75.3125 75.875 C75.97056641 76.50019531 76.62863281 77.12539062 77.30664062 77.76953125 C78.23186523 78.68412109 78.23186523 78.68412109 79.17578125 79.6171875 C79.74208252 80.17003418 80.30838379 80.72288086 80.8918457 81.29248047 C82 83 82 83 81.74153137 84.91415405 C80.90888891 87.25628544 80.00912424 88.34911082 78.24365234 90.08105469 C77.66569916 90.65555359 77.08774597 91.23005249 76.49227905 91.82196045 C75.86318634 92.43243225 75.23409363 93.04290405 74.5859375 93.671875 C73.93807281 94.31312317 73.29020813 94.95437134 72.62271118 95.61505127 C70.54711305 97.66724895 68.46166617 99.70906238 66.375 101.75 C64.31143882 103.77827424 62.25010041 105.8087334 60.19155884 107.84210205 C58.91146135 109.10549344 57.6282794 110.36577057 56.34140015 111.62225342 C52.62855146 115.274398 49.16794334 119.06562095 45.76553345 123.00714111 C42.83775157 126.31189647 39.70358939 129.39951964 36.5625 132.5 C35.87873291 133.17998047 35.19496582 133.85996094 34.49047852 134.56054688 C31.60262227 137.43225143 28.70876925 140.29788438 25.81542969 143.1640625 C23.68734275 145.27392787 21.56237083 147.38689645 19.4375 149.5 C18.79562744 150.13357422 18.15375488 150.76714844 17.49243164 151.41992188 C13.67549981 155.21643698 10.06357041 159.13031279 6.56274414 163.22070312 C5.10105249 164.88494446 3.58455752 166.45327644 2 168 C-1.8826895 166.41588094 -4.51864365 163.77134362 -7.421875 160.84375 C-8.17914886 160.08934631 -8.17914886 160.08934631 -8.95172119 159.31970215 C-10.01307997 158.25970014 -11.07193419 157.19718512 -12.12841797 156.13232422 C-13.75139124 154.49859954 -15.38481068 152.87586706 -17.01953125 151.25390625 C-18.05012146 150.22199524 -19.08009152 149.18946441 -20.109375 148.15625 C-20.59992371 147.66974976 -21.09047241 147.18324951 -21.59588623 146.68200684 C-25 143.22994349 -25 143.22994349 -25 141 C-25.66 141 -26.32 141 -27 141 C-28.21679687 139.75976563 -28.21679687 139.75976563 -29.71875 137.90625 C-33.22116442 133.78746866 -36.94888539 129.96372253 -40.78125 126.15625 C-41.40193359 125.53886963 -42.02261719 124.92148926 -42.66210938 124.28540039 C-44.60613689 122.3549692 -46.55263034 120.42705937 -48.5 118.5 C-63.40727511 103.7482018 -63.40727511 103.7482018 -68.57666016 97.65039062 C-70.89372518 94.96370802 -73.40753756 92.48447211 -75.9375 90 C-76.67709961 89.26716797 -76.67709961 89.26716797 -77.43164062 88.51953125 C-78.61873229 87.34396475 -79.80900498 86.17161174 -81 85 C-80.40251953 84.31164062 -80.40251953 84.31164062 -79.79296875 83.609375 C-76.39984291 79.68325173 -76.39984291 79.68325173 -73.25 75.5625 C-72.8375 75.046875 -72.425 74.53125 -72 74 C-71.34 74 -70.68 74 -70 74 C-69.73683487 73.41119049 -69.47366974 72.82238098 -69.20252991 72.21572876 C-67.94482345 69.89833412 -66.63093075 68.39563666 -64.75952148 66.54833984 C-64.10221542 65.89441254 -63.44490936 65.24048523 -62.76768494 64.56674194 C-62.05930984 63.87182648 -61.35093475 63.17691101 -60.62109375 62.4609375 C-59.89382584 61.73887115 -59.16655792 61.01680481 -58.41725159 60.27285767 C-56.09536418 57.96877306 -53.76689861 55.67148868 -51.4375 53.375 C-49.10541428 51.07050867 -46.77479055 48.76458608 -44.44703674 46.45571899 C-42.99854462 45.01950844 -41.54738824 43.58597914 -40.09336853 42.15536499 C-39.43921463 41.507742 -38.78506073 40.86011902 -38.11108398 40.19287109 C-37.53309555 39.62313568 -36.95510712 39.05340027 -36.35960388 38.46640015 C-34.89566622 37.02481286 -34.89566622 37.02481286 -34 35 C-33.34 35 -32.68 35 -32 35 C-31.72926163 34.40361725 -31.45852325 33.8072345 -31.17958069 33.19277954 C-30.01255212 31.02333374 -28.87174776 29.63493509 -27.12670898 27.91552734 C-26.54948593 27.34168304 -25.97226288 26.76783875 -25.37754822 26.17660522 C-24.75666824 25.56918488 -24.13578827 24.96176453 -23.49609375 24.3359375 C-22.85761002 23.70265533 -22.21912628 23.06937317 -21.56129456 22.41690063 C-19.52472625 20.39812011 -17.48158925 18.38616271 -15.4375 16.375 C-13.39072882 14.35583275 -11.34542734 12.33523099 -9.30299377 10.31167603 C-8.03256434 9.05351851 -6.75947158 7.79804361 -5.48350525 6.54550171 C-2.35670716 3.56843505 -2.35670716 3.56843505 0 0 Z " fill="#A4E1E6" transform="translate(114,65)"/>
<path d="M0 0 C0.495 0.99 0.495 0.99 1 2 C-5.19586967 9.44235105 -12.0722535 16.18615315 -18.9375 23 C-20.11026009 24.16773374 -21.28278798 25.33570074 -22.45507812 26.50390625 C-25.30071689 29.33863234 -28.14947453 32.17018824 -31 35 C-31.66 34.67 -32.32 34.34 -33 34 C-32.04882866 32.8274869 -31.08882991 31.66212985 -30.125 30.5 C-29.59132813 29.8503125 -29.05765625 29.200625 -28.5078125 28.53125 C-28.01023437 28.0259375 -27.51265625 27.520625 -27 27 C-26.34 27 -25.68 27 -25 27 C-24.77779785 26.45182617 -24.5555957 25.90365234 -24.32666016 25.33886719 C-22.59300021 22.28247 -20.26246275 20.01501048 -17.7734375 17.578125 C-17.26575836 17.07327576 -16.75807922 16.56842651 -16.23501587 16.04827881 C-14.61966158 14.44407904 -12.99747791 12.84699144 -11.375 11.25 C-10.27558302 10.16061893 -9.17661941 9.0707801 -8.078125 7.98046875 C-5.3906398 5.31498115 -2.69700979 2.65584857 0 0 Z " fill="#83BCBF" transform="translate(140,105)"/>
<path d="M0 0 C0.33 0.99 0.66 1.98 1 3 C-8.72361325 12.89656289 -8.72361325 12.89656289 -12.25 15.6875 C-15.58099298 18.48856228 -18.26214822 21.6310831 -21 25 C-21.66 24.67 -22.32 24.34 -23 24 C-21.71937515 22.2925002 -20.38232443 20.62626404 -19 19 C-18.34 19 -17.68 19 -17 19 C-16.7417041 18.41573242 -16.4834082 17.83146484 -16.21728516 17.22949219 C-14.90326864 14.82283378 -13.47519985 13.24680663 -11.5234375 11.328125 C-10.51796875 10.33232422 -10.51796875 10.33232422 -9.4921875 9.31640625 C-8.79351562 8.63449219 -8.09484375 7.95257813 -7.375 7.25 C-6.31539062 6.20392578 -6.31539062 6.20392578 -5.234375 5.13671875 C-3.49401297 3.41987512 -1.74915019 1.70788168 0 0 Z " fill="#92C4C7" transform="translate(171,73)"/>
<path d="M0 0 C0.33 0.99 0.66 1.98 1 3 C0.36191406 3.60328125 -0.27617187 4.2065625 -0.93359375 4.828125 C-1.75988281 5.62734375 -2.58617187 6.4265625 -3.4375 7.25 C-4.26121094 8.03890625 -5.08492187 8.8278125 -5.93359375 9.640625 C-7.91885207 11.90734717 -8.6300359 13.0671937 -9 16 C-9.66 15.34 -10.32 14.68 -11 14 C-10.86126348 9.74541334 -7.84182675 7.54403586 -4.9375 4.75 C-4.01839844 3.85796875 -3.09929687 2.9659375 -2.15234375 2.046875 C-1.44207031 1.37140625 -0.73179687 0.6959375 0 0 Z " fill="#95C6C8" transform="translate(173,203)"/>
<path d="M0 0 C3.36591866 1.44253657 5.51047079 3.33264727 8 6 C7.67 6.66 7.34 7.32 7 8 C5.68 6.68 4.36 5.36 3 4 C0.69 4.66 -1.62 5.32 -4 6 C-2.68 4.02 -1.36 2.04 0 0 Z " fill="#AAD1D3" transform="translate(178,65)"/>
<path d="M0 0 C0.33 0.66 0.66 1.32 1 2 C-1.3125 4.5 -1.3125 4.5 -4 7 C-4.99 7 -5.98 7 -7 7 C-4.69 4.69 -2.38 2.38 0 0 Z " fill="#88BFC1" transform="translate(140,105)"/>
</svg>
